<svg width="96" height="38" viewBox="0 0 96 38" fill="none" xmlns="http://www.w3.org/2000/svg">
  <path fill-rule="evenodd" clip-rule="evenodd" d="M38 19.1148C38 8.55898 29.4924 0 19 0C8.50759 0 0 8.55898 0 19.1148C0 28.6551 6.94688 36.563 16.0312 37.9983V24.6418H11.2058V19.1148H16.0312V14.9035C16.0312 10.1138 18.8685 7.46585 23.208 7.46585C25.287 7.46585 27.4618 7.83962 27.4618 7.83962V12.5441H25.0647C22.7058 12.5441 21.9679 14.0169 21.9679 15.5308V19.1148H27.237L26.3956 24.6418H21.9688V38C31.0531 36.5655 38 28.6577 38 19.1148Z" fill="#4285F4"/>
  <path fill-rule="evenodd" clip-rule="evenodd" d="M77 0C66.5064 0 58 8.50673 58 18.9997C58 29.4932 66.5064 38 77 38C87.4929 38 96 29.4934 96 18.9997C96 8.50673 87.4929 0 77 0ZM77.222 30.1125C71.0978 30.1125 66.1374 25.1395 66.1374 18.9998C66.1374 12.8603 71.0978 7.88739 77.222 7.88739C80.215 7.88739 82.7154 8.99164 84.6348 10.7836L81.5098 13.916V13.909C80.3462 12.7976 78.8707 12.2283 77.222 12.2283C73.5642 12.2283 70.5922 15.3258 70.5922 18.9932C70.5922 22.6597 73.5643 25.7648 77.222 25.7648C80.5405 25.7648 82.7986 23.8618 83.2634 21.2504H77.222V16.9163H87.6479C87.7866 17.6592 87.8625 18.4373 87.8625 19.2498C87.8625 25.5981 83.6232 30.1125 77.222 30.1125Z" fill="#EA4335"/>
</svg>