<svg width="177" height="167" viewBox="0 0 177 167" fill="none" xmlns="http://www.w3.org/2000/svg">
<g clip-path="url(#clip0_2_369)">
<path d="M99.3829 99.8585C99.3829 95.7019 96.0339 92.3322 91.9026 92.3322C87.7714 92.3322 84.4223 95.7019 84.4223 99.8585C84.4223 104.015 87.7714 107.385 91.9026 107.385C96.0339 107.385 99.3829 104.015 99.3829 99.8585Z" fill="#FBF7F4"/>
<path d="M120.804 99.8585C120.804 95.7019 117.455 92.3322 113.323 92.3322C109.192 92.3322 105.843 95.7019 105.843 99.8585C105.843 104.015 109.192 107.385 113.323 107.385C117.455 107.385 120.804 104.015 120.804 99.8585Z" fill="#FBF7F4"/>
<path d="M131.428 59.4022C132.837 60.8209 134.053 62.4208 135.044 64.1603C132.181 70.986 127.381 76.8105 121.244 80.9049C115.107 84.9993 107.906 87.1817 100.543 87.179C99.1095 87.1801 97.6774 87.0961 96.2539 86.9277C90.2353 86.2271 84.4759 84.0665 79.4706 80.6315C74.4653 77.1965 70.3638 72.59 67.5189 67.2078C64.674 61.8257 63.1707 55.8289 63.1381 49.733C63.1056 43.6371 64.5449 37.6244 67.3322 32.2118C61.6261 30.8295 56.322 28.1193 51.8465 24.2992C47.3709 20.479 43.8486 15.6556 41.563 10.2166C44.3117 5.40037 48.7203 1.76543 53.9539 0C54.5482 2.94099 55.719 5.73333 57.398 8.2139C59.0769 10.6945 61.2304 12.8135 63.7325 14.4473C66.2347 16.0811 69.0352 17.1967 71.9708 17.7292C74.9063 18.2616 77.9178 18.2001 80.8294 17.5483C81.578 17.3924 82.3169 17.1926 83.0422 16.9498C84.896 16.3331 86.6603 15.4717 88.2889 14.3882C89.0931 13.8489 89.9791 13.4446 90.9122 13.1912C93.0558 12.6205 95.2455 12.242 97.4556 12.06C98.4787 11.9762 99.5137 11.9283 100.555 11.9283C103.487 11.9288 106.41 12.2723 109.263 12.9518C115.144 14.3709 120.596 17.2007 125.154 21.1997C129.711 25.1987 133.24 30.248 135.437 35.9166C132.782 40.9854 128.319 44.8556 122.945 46.7497C122.569 43.6586 121.562 40.6791 119.988 37.998C118.413 35.3168 116.305 32.9919 113.796 31.169C111.287 29.3461 108.43 28.0644 105.405 27.4045C102.38 26.7446 99.2528 26.7206 96.2184 27.334C95.2215 27.5349 94.2395 27.8048 93.2797 28.142C90.9631 28.9536 88.7947 30.1425 86.8612 31.6612C86.1368 32.2355 85.4457 32.851 84.7911 33.5046C82.3207 35.996 80.4634 39.034 79.3675 42.376C78.2716 45.718 77.9674 49.2715 78.4792 52.7529C78.991 56.2342 80.3046 59.547 82.3152 62.4267C84.3258 65.3064 86.9776 67.6733 90.0591 69.3384C93.1405 71.0035 96.5663 71.9208 100.063 72.0169C103.559 72.1131 107.029 71.3854 110.197 69.8921C113.364 68.3988 116.14 66.1812 118.304 63.4163C120.468 60.6514 121.96 57.4157 122.66 53.9677C125.962 55.0701 128.964 56.9307 131.428 59.4022Z" fill="#FBF7F4"/>
<path d="M15.5859 129.627C17.2266 129.627 18.6458 129.861 19.8438 130.33C21.0417 130.773 22.0833 131.385 22.9688 132.166V137.635C22.3438 137.166 21.6927 136.71 21.0156 136.268C20.3385 135.825 19.5703 135.46 18.7109 135.174C17.8776 134.887 16.888 134.744 15.7422 134.744C14.1797 134.744 12.7604 135.122 11.4844 135.877C10.2083 136.632 9.19271 137.648 8.4375 138.924C7.68229 140.2 7.30469 141.658 7.30469 143.299C7.30469 144.913 7.68229 146.372 8.4375 147.674C9.19271 148.95 10.2083 149.965 11.4844 150.721C12.7604 151.45 14.1797 151.814 15.7422 151.814C17.487 151.814 18.9453 151.554 20.1172 151.033C21.3151 150.486 22.3958 149.822 23.3594 149.041V154.314C22.474 155.122 21.3672 155.773 20.0391 156.268C18.7109 156.736 17.2266 156.971 15.5859 156.971C13.7109 156.971 11.9401 156.645 10.2734 155.994C8.60677 155.317 7.13542 154.38 5.85938 153.182C4.58333 151.958 3.58073 150.512 2.85156 148.846C2.1224 147.179 1.75781 145.33 1.75781 143.299C1.75781 141.268 2.1224 139.419 2.85156 137.752C3.58073 136.085 4.58333 134.653 5.85938 133.455C7.13542 132.231 8.60677 131.294 10.2734 130.643C11.9401 129.965 13.7109 129.627 15.5859 129.627ZM40.3906 130.018L52.5781 156.385H46.2109L44.2188 151.502H33.8672L31.875 156.385H25.5078L37.6953 130.018H40.3906ZM39.0625 138.885L35.7812 146.893H42.3438L39.0625 138.885ZM67.5 130.213C68.724 130.213 69.9219 130.382 71.0938 130.721C72.2656 131.059 73.3203 131.58 74.2578 132.283C75.2214 132.986 75.9766 133.872 76.5234 134.939C77.0964 135.981 77.3828 137.231 77.3828 138.689C77.3828 140.226 76.9922 141.554 76.2109 142.674C75.4557 143.768 74.4531 144.627 73.2031 145.252C71.9531 145.851 70.599 146.202 69.1406 146.307L78.5547 156.385H71.4062L62.3047 145.682V156.385H56.875V130.213H67.5ZM62.3047 135.291V141.893C62.9297 142.101 63.6198 142.27 64.375 142.4C65.1562 142.505 65.9375 142.557 66.7188 142.557C68.2812 142.557 69.5182 142.244 70.4297 141.619C71.3672 140.968 71.8359 140.057 71.8359 138.885C71.8359 137.609 71.3411 136.697 70.3516 136.15C69.388 135.577 68.2031 135.291 66.7969 135.291H62.3047ZM102.266 130.213V135.096H93.9062V156.268H88.5156V135.096H80.1562V130.213H102.266ZM121.289 151.502V156.385H107.031V151.502H111.445V135.096H107.031V130.213H121.289V135.096H116.875V151.502H121.289ZM144.609 141.697V146.58H134.336V156.385H128.906V130.213H146.758V135.096H134.336V141.697H144.609ZM176.016 130.213L165.898 146.502V156.385H160.352V146.775L150.195 130.213H156.562L163.086 141.229L169.648 130.213H176.016Z" fill="white"/>
</g>
<defs>
<clipPath id="clip0_2_369">
<rect width="177" height="166.385" fill="white"/>
</clipPath>
</defs>
</svg>
