<svg width="118" height="118" viewBox="0 0 118 118" fill="none" xmlns="http://www.w3.org/2000/svg">
<path d="M50.5 100.5C61.5936 100.498 72.3675 96.7839 81.1063 89.95L108.581 117.425L117.419 108.588L89.9438 81.1125C96.7813 72.3729 100.497 61.5965 100.5 50.5C100.5 22.9313 78.0687 0.5 50.5 0.5C22.9313 0.5 0.5 22.9313 0.5 50.5C0.5 78.0687 22.9313 100.5 50.5 100.5ZM50.5 13C71.1813 13 88 29.8188 88 50.5C88 71.1813 71.1813 88 50.5 88C29.8188 88 13 71.1813 13 50.5C13 29.8188 29.8188 13 50.5 13Z" fill="#C5C2C2"/>
<path d="M59.3249 41.6623C61.6937 44.0373 62.9999 47.1748 62.9999 50.4998H75.4999C75.5054 47.215 74.8598 43.9616 73.6004 40.9278C72.341 37.894 70.4927 35.14 68.1624 32.8248C58.6999 23.3748 42.2937 23.3748 32.8374 32.8248L41.6624 41.6748C46.4124 36.9373 54.5999 36.9498 59.3249 41.6623Z" fill="#C5C2C2"/>
</svg>
