<svg width="24" height="28" viewBox="0 0 24 28" fill="none" xmlns="http://www.w3.org/2000/svg">
<path d="M14.7762 26.0376C14.7762 24.9537 13.92 24.0751 12.8638 24.0751C11.8076 24.0751 10.9514 24.9537 10.9514 26.0376C10.9514 27.1214 11.8076 28 12.8638 28C13.92 28 14.7762 27.1214 14.7762 26.0376Z" fill="#317773"/>
<path d="M20.2527 26.0376C20.2527 24.9537 19.3965 24.0751 18.3403 24.0751C17.2841 24.0751 16.4279 24.9537 16.4279 26.0376C16.4279 27.1214 17.2841 28 18.3403 28C19.3965 28 20.2527 27.1214 20.2527 26.0376Z" fill="#317773"/>
<path d="M22.9689 15.4888C23.3291 15.8587 23.64 16.2759 23.8935 16.7295C23.1615 18.5092 21.9342 20.0279 20.3653 21.0955C18.7963 22.1631 16.9554 22.7322 15.0728 22.7315C14.7064 22.7317 14.3402 22.7098 13.9763 22.6659C12.4381 22.4824 10.9663 21.9183 9.68742 21.0223C8.40852 20.1263 7.36073 18.925 6.63406 17.5218C5.90739 16.1186 5.52357 14.5553 5.51558 12.9662C5.50758 11.3772 5.87565 9.80993 6.58817 8.39906C5.12935 8.03863 3.77331 7.33196 2.62908 6.33588C1.48485 5.3398 0.584353 4.0821 0 2.66392C0.702749 1.40812 1.82983 0.460325 3.16785 0C3.31979 0.766847 3.61913 1.49494 4.04838 2.14173C4.47762 2.78853 5.02817 3.34106 5.66787 3.76705C6.30757 4.19305 7.02358 4.48396 7.77408 4.62279C8.52458 4.76162 9.29451 4.74559 10.0389 4.57563C10.2303 4.53498 10.4192 4.48288 10.6046 4.41957C11.0786 4.25876 11.5296 4.03416 11.946 3.75164C12.1516 3.61102 12.3781 3.50561 12.6167 3.43953C13.1647 3.29074 13.7246 3.19203 14.2896 3.14458C14.5512 3.12273 14.8158 3.11024 15.0819 3.11024C15.8317 3.11038 16.5788 3.19993 17.3084 3.3771C18.8118 3.74712 20.2057 4.48499 21.3709 5.52771C22.5362 6.57042 23.4382 7.88701 24 9.36506C23.3213 10.6867 22.1803 11.6958 20.8063 12.1897C20.7101 11.3838 20.4527 10.6069 20.0502 9.90777C19.6477 9.20868 19.1088 8.60246 18.4672 8.12714C17.8257 7.65182 17.0953 7.31765 16.322 7.14558C15.5487 6.9735 14.749 6.96724 13.9733 7.12719C13.7184 7.17957 13.4674 7.24996 13.222 7.33787C12.6297 7.54949 12.0753 7.85949 11.581 8.25549C11.3958 8.40524 11.2191 8.56572 11.0518 8.73615C10.4202 9.38576 9.94534 10.1779 9.66516 11.0493C9.38497 11.9207 9.3072 12.8473 9.43805 13.755C9.56889 14.6628 9.90474 15.5266 10.4188 16.2774C10.9328 17.0283 11.6108 17.6454 12.3986 18.0796C13.1864 18.5138 14.0622 18.753 14.9561 18.778C15.85 18.8031 16.7372 18.6134 17.547 18.224C18.3567 17.8346 19.0665 17.2564 19.6198 16.5354C20.173 15.8145 20.5543 14.9708 20.7333 14.0718C21.5754 14.3601 22.3407 14.8452 22.9689 15.4888Z" fill="#317773"/>
</svg>
