<svg width="390" height="830" viewBox="0 0 390 830" fill="none" xmlns="http://www.w3.org/2000/svg">
  <path d="M195 -414C43.8953 -414 -103.816 -369.192 -229.455 -285.243C-355.095 -201.293 -453.018 -81.973 -510.844 57.6297C-568.669 197.232 -583.799 350.847 -554.32 499.049C-524.841 647.25 -452.077 783.382 -345.229 890.229C-238.382 997.077 -102.25 1069.84 45.9512 1099.32C194.153 1128.8 347.768 1113.67 487.37 1055.84C626.973 998.018 746.293 900.094 830.243 774.455C914.192 648.816 959 501.105 959 350C959 147.374 878.507 -46.9519 735.23 -190.23C591.952 -333.507 397.626 -414 195 -414ZM693.988 93.5824L66.5527 720.54L-303.987 350C-316.651 337.336 -323.766 320.16 -323.766 302.25C-323.766 284.34 -316.651 267.164 -303.987 254.5C-291.323 241.836 -274.147 234.721 -256.237 234.721C-238.327 234.721 -221.151 241.836 -208.487 254.5L67.5077 530.495L599.443 -0.962616C612.107 -13.6267 629.283 -20.7413 647.193 -20.7413C665.102 -20.7413 682.278 -13.6267 694.943 -0.962616C707.607 11.7015 714.721 28.8777 714.721 46.7874C714.721 64.6971 707.607 81.8733 694.943 94.5374L693.988 93.5824Z" fill="#317773"/>
</svg>
